# xmcd
#
# Track frame offsets:
#	150
#	11687
#	13120
#	30202
#	45632
#	60687
#	91930
#	101537
#	117297
#
# Disc length: 2031 seconds
#
# Revision: 1
# Processed by: cddbd v1.5.1PL0 Copyright (c) Steve Scherf et al.
# Submitted via: CDex 1.50Beta5
#
DISCID=6307ed09
DTITLE=いろいろ - TALES OF DESTINY PROUST-FORGOTTEN CHRONICLE DISK1〜Nightmare〜
DYEAR=1900
DGENRE=
TTITLE0=テイルズオブデスティニー/Thunder
TTITLE1=History that was forgotten
TTITLE2=Lullaby
TTITLE3=Yes,my lady
TTITLE4=True
TTITLE5=Man of the mask
TTITLE6=Emilio
TTITLE7=Family
TTITLE8=Nightmare
EXTD=
EXTT0=
EXTT1=
EXTT2=
EXTT3=
EXTT4=
EXTT5=
EXTT6=
EXTT7=
EXTT8=
PLAYORDER=
